<?xml version="1.0" encoding="UTF-8"?>
<svg xmlns="http://www.w3.org/2000/svg" xmlns:xlink="http://www.w3.org/1999/xlink" width="605px" height="104px" viewBox="0 0 621 104" version="1.1">
<defs>
<clipPath id="clip1">
  <path d="M 0 52.296875 L 621 52.296875 L 621 104 L 0 104 Z M 0 52.296875 "/>
</clipPath>
</defs>
<g id="surface1">
<g clip-path="url(#clip1)" clip-rule="nonzero">
<path style=" stroke:none;fill-rule:nonzero;fill:rgb(0%,0%,0%);fill-opacity:1;" d="M 0 54.097656 L 18.296875 54.097656 C 23.011719 54.097656 26.613281 55.347656 28.972656 57.703125 C 30.796875 59.484375 31.800781 61.945312 31.742188 64.496094 L 31.742188 64.636719 C 31.832031 68.550781 29.523438 72.121094 25.921875 73.648438 C 30.632812 75.3125 33.960938 77.949219 33.960938 83.496094 L 33.960938 83.632812 C 33.960938 90.84375 28 94.867188 18.851562 94.867188 L 0 94.867188 Z M 24.535156 65.605469 C 24.535156 62.417969 22.039062 60.476562 17.328125 60.476562 L 7.070312 60.476562 L 7.070312 71.292969 L 16.773438 71.292969 C 21.347656 71.152344 24.535156 69.351562 24.535156 65.605469 M 18.4375 77.253906 L 7.070312 77.253906 L 7.070312 88.347656 L 18.992188 88.347656 C 23.84375 88.347656 26.890625 86.40625 26.890625 82.800781 L 26.890625 82.664062 C 26.753906 79.335938 23.980469 77.253906 18.4375 77.253906 M 55.863281 53.683594 L 62.378906 53.683594 L 80.398438 94.726562 L 72.773438 94.726562 L 68.613281 84.882812 L 49.347656 84.882812 L 45.1875 94.726562 L 37.84375 94.726562 Z M 65.980469 78.640625 L 59.050781 62.28125 L 52.121094 78.503906 L 65.980469 78.503906 Z M 87.328125 54.097656 L 94.535156 54.097656 L 94.535156 88.347656 L 115.882812 88.347656 L 115.882812 94.867188 L 87.328125 94.867188 Z M 123.230469 54.097656 L 130.855469 54.097656 L 143.191406 73.371094 L 155.527344 54.097656 L 163.152344 54.097656 L 163.152344 94.867188 L 155.941406 94.867188 L 155.941406 65.605469 L 143.050781 84.742188 L 142.773438 84.742188 L 130.300781 65.605469 L 130.300781 94.726562 L 123.230469 94.726562 Z M 173.132812 77.53125 L 173.132812 54.097656 L 180.339844 54.097656 L 180.339844 77.253906 C 180.339844 84.882812 184.222656 88.765625 190.597656 88.765625 C 196.972656 88.765625 200.855469 85.019531 200.855469 77.53125 L 200.855469 54.097656 L 208.0625 54.097656 L 208.0625 77.117188 C 208.0625 89.320312 201.269531 95.421875 190.597656 95.421875 C 179.785156 95.421875 173.132812 89.320312 173.132812 77.53125 Z M 217.765625 54.097656 L 232.875 54.097656 C 245.628906 54.097656 254.5 62.835938 254.5 74.34375 L 254.5 74.480469 C 254.5 85.992188 245.628906 94.867188 232.875 94.867188 L 217.765625 94.867188 Z M 224.835938 60.617188 L 224.835938 88.347656 L 232.875 88.347656 C 241.46875 88.347656 247.015625 82.523438 247.015625 74.621094 L 247.015625 74.480469 C 247.015625 66.578125 241.46875 60.617188 232.875 60.617188 Z M 274.738281 53.683594 L 281.390625 53.683594 L 299.273438 94.726562 L 291.648438 94.726562 L 287.488281 84.882812 L 268.222656 84.882812 L 264.0625 94.726562 L 256.71875 94.726562 Z M 284.996094 78.640625 L 277.925781 62.417969 L 270.996094 78.640625 Z M 326.441406 60.617188 L 313.550781 60.617188 L 313.550781 54.097656 L 346.539062 54.097656 L 346.539062 60.617188 L 333.648438 60.617188 L 333.648438 94.726562 L 326.441406 94.726562 Z M 352.777344 52.296875 L 359.847656 52.296875 L 359.847656 68.796875 C 361.816406 65.390625 365.480469 63.320312 369.410156 63.390625 C 376.34375 63.390625 380.363281 68.101562 380.363281 75.175781 L 380.363281 94.726562 L 373.292969 94.726562 L 373.292969 77.253906 C 373.292969 72.539062 370.9375 69.765625 366.777344 69.765625 C 362.757812 69.765625 359.847656 72.679688 359.847656 77.394531 L 359.847656 94.726562 L 352.777344 94.726562 Z M 386.878906 79.472656 C 386.878906 70.597656 393.113281 63.390625 401.847656 63.390625 C 411.550781 63.390625 416.542969 71.015625 416.542969 79.890625 C 416.5625 80.539062 416.519531 81.191406 416.402344 81.832031 L 393.808594 81.832031 C 394.210938 86.378906 398.121094 89.804688 402.679688 89.597656 C 405.835938 89.617188 408.855469 88.308594 410.996094 85.992188 L 415.15625 89.597656 C 412.085938 93.394531 407.421875 95.546875 402.542969 95.421875 C 393.667969 95.421875 386.878906 89.042969 386.878906 79.472656 M 409.609375 77.253906 C 409.195312 72.679688 406.421875 69.210938 401.847656 69.210938 C 397.550781 69.210938 394.5 72.539062 393.945312 77.253906 Z M 440.105469 54.097656 L 458.265625 54.097656 C 463.394531 54.097656 467.414062 55.625 470.046875 58.121094 C 472.289062 60.464844 473.488281 63.613281 473.375 66.855469 L 473.375 66.992188 C 473.375 73.648438 469.355469 77.671875 463.671875 79.335938 L 474.621094 94.726562 L 466.164062 94.726562 L 456.183594 80.582031 L 447.175781 80.582031 L 447.175781 94.726562 L 439.96875 94.726562 L 439.96875 54.097656 Z M 457.710938 74.203125 C 462.839844 74.203125 466.027344 71.570312 466.027344 67.410156 L 466.027344 67.269531 C 466.027344 62.972656 462.839844 60.476562 457.570312 60.476562 L 447.175781 60.476562 L 447.175781 74.203125 Z M 477.949219 79.472656 C 477.949219 69.210938 484.878906 63.390625 492.226562 63.390625 C 496.378906 63.324219 500.289062 65.359375 502.621094 68.796875 L 502.621094 64.082031 L 509.691406 64.082031 L 509.691406 94.726562 L 502.621094 94.726562 L 502.621094 89.597656 C 500.40625 93.214844 496.46875 95.421875 492.226562 95.421875 C 485.019531 95.421875 477.949219 89.597656 477.949219 79.472656 M 502.898438 79.472656 C 502.898438 73.371094 498.742188 69.488281 494.027344 69.488281 C 489.175781 69.488281 485.15625 73.234375 485.15625 79.335938 L 485.15625 79.472656 C 485.15625 85.4375 489.175781 89.320312 494.027344 89.320312 C 498.601562 89.320312 502.898438 85.296875 502.898438 79.472656 M 518.839844 64.082031 L 525.910156 64.082031 L 525.910156 68.796875 C 527.90625 65.417969 531.550781 63.359375 535.472656 63.390625 C 542.40625 63.390625 546.425781 68.101562 546.425781 75.175781 L 546.425781 94.726562 L 539.355469 94.726562 L 539.355469 77.253906 C 539.355469 72.539062 537 69.765625 532.839844 69.765625 C 528.820312 69.765625 525.910156 72.679688 525.910156 77.394531 L 525.910156 94.726562 L 518.839844 94.726562 Z M 554.601562 100.550781 L 557.238281 95.28125 C 560.496094 97.394531 564.304688 98.5 568.1875 98.472656 C 574.425781 98.472656 577.890625 95.28125 577.890625 89.042969 L 577.890625 86.683594 C 575.472656 90.28125 571.410156 92.417969 567.078125 92.371094 C 563.28125 92.40625 559.636719 90.882812 556.992188 88.160156 C 554.34375 85.433594 552.929688 81.746094 553.078125 77.949219 L 553.078125 77.808594 C 552.925781 74.035156 554.316406 70.363281 556.933594 67.640625 C 559.550781 64.917969 563.164062 63.382812 566.941406 63.390625 C 571.171875 63.34375 575.175781 65.296875 577.75 68.65625 L 577.75 64.082031 L 584.820312 64.082031 L 584.820312 88.488281 C 584.820312 93.617188 583.433594 97.5 580.941406 99.996094 C 578.167969 102.769531 573.871094 104.15625 568.324219 104.15625 C 563.507812 104.234375 558.761719 102.988281 554.601562 100.550781 M 577.890625 77.949219 C 577.878906 75.597656 576.914062 73.355469 575.210938 71.734375 C 573.511719 70.113281 571.226562 69.25 568.878906 69.351562 C 566.578125 69.230469 564.328125 70.074219 562.671875 71.679688 C 561.015625 73.28125 560.101562 75.503906 560.148438 77.808594 L 560.148438 77.949219 C 560.125 80.246094 561.046875 82.453125 562.699219 84.054688 C 564.347656 85.652344 566.585938 86.503906 568.878906 86.40625 C 573.730469 86.269531 577.890625 82.941406 577.890625 77.949219 M 591.335938 79.472656 C 591.335938 70.597656 597.574219 63.390625 606.308594 63.390625 C 616.011719 63.390625 621 71.015625 621 79.890625 C 621.023438 80.539062 620.976562 81.191406 620.863281 81.832031 L 598.265625 81.832031 C 598.667969 86.378906 602.578125 89.804688 607.136719 89.597656 C 610.292969 89.617188 613.3125 88.308594 615.457031 85.992188 L 619.613281 89.597656 C 616.542969 93.394531 611.882812 95.546875 607 95.421875 C 602.765625 95.527344 598.675781 93.871094 595.707031 90.847656 C 592.738281 87.828125 591.15625 83.707031 591.335938 79.472656 M 614.070312 77.253906 C 613.652344 72.679688 610.882812 69.210938 606.308594 69.210938 C 602.007812 69.210938 598.960938 72.539062 598.40625 77.253906 Z M 614.070312 77.253906 "/>
</g>
<path style=" stroke:none;fill-rule:nonzero;fill:rgb(0%,0%,0%);fill-opacity:1;" d="M 198.976562 11.667969 C 202.472656 11.34375 205.636719 9.441406 207.5625 6.503906 C 209.496094 9.445312 212.667969 11.34375 216.171875 11.667969 L 217.144531 9.53125 C 212.613281 8.925781 209.269531 6.316406 209.109375 3.550781 L 216.300781 3.550781 L 216.300781 1.363281 L 198.789062 1.363281 L 198.789062 3.550781 L 206.035156 3.550781 C 205.875 6.324219 202.53125 8.925781 197.992188 9.53125 Z M 218.332031 13.40625 L 196.816406 13.40625 L 196.816406 15.589844 L 206.140625 15.589844 L 206.140625 23.84375 L 208.851562 23.84375 L 208.851562 15.597656 L 218.304688 15.597656 Z M 229.867188 10.425781 L 224.046875 10.425781 L 224.046875 6.953125 L 229.867188 6.953125 Z M 232.554688 1.523438 L 229.867188 1.523438 L 229.867188 4.816406 L 224.046875 4.816406 L 224.046875 1.523438 L 221.332031 1.523438 L 221.332031 12.589844 L 232.554688 12.589844 Z M 231.421875 21.710938 C 228.105469 21.710938 226.179688 20.867188 226.179688 19.3125 C 226.179688 17.785156 228.105469 16.941406 231.421875 16.941406 C 234.742188 16.941406 236.664062 17.785156 236.664062 19.3125 C 236.664062 20.867188 234.742188 21.710938 231.421875 21.710938 Z M 231.421875 14.777344 C 226.523438 14.777344 223.496094 16.488281 223.496094 19.308594 C 223.496094 22.152344 226.523438 23.839844 231.421875 23.839844 C 236.320312 23.839844 239.351562 22.152344 239.351562 19.308594 C 239.351562 16.492188 236.320312 14.78125 231.421875 14.78125 Z M 239.085938 5.820312 L 239.085938 0.0234375 L 236.375 0.0234375 L 236.375 14.226562 L 239.085938 14.226562 L 239.085938 8.0625 L 242.457031 8.0625 L 242.457031 5.820312 Z M 252.570312 7.558594 C 252.539062 6.585938 252.917969 5.644531 253.613281 4.960938 C 254.3125 4.28125 255.261719 3.921875 256.230469 3.972656 C 257.207031 3.921875 258.160156 4.277344 258.859375 4.960938 C 259.558594 5.640625 259.941406 6.582031 259.917969 7.558594 C 259.949219 8.535156 259.566406 9.484375 258.867188 10.167969 C 258.164062 10.851562 257.210938 11.214844 256.230469 11.164062 C 255.257812 11.210938 254.304688 10.851562 253.609375 10.167969 C 252.914062 9.480469 252.539062 8.539062 252.570312 7.5625 Z M 262.578125 7.558594 C 262.574219 5.914062 261.886719 4.34375 260.6875 3.222656 C 259.484375 2.097656 257.871094 1.523438 256.230469 1.628906 C 254.59375 1.527344 252.988281 2.105469 251.792969 3.226562 C 250.59375 4.351562 249.914062 5.917969 249.910156 7.558594 C 249.914062 9.199219 250.59375 10.769531 251.789062 11.898438 C 252.984375 13.023438 254.59375 13.605469 256.230469 13.511719 C 257.875 13.613281 259.488281 13.03125 260.6875 11.90625 C 261.890625 10.78125 262.574219 9.207031 262.578125 7.5625 Z M 255.863281 15.671875 L 253.125 15.671875 L 253.125 23.371094 L 269.136719 23.371094 L 269.136719 21.152344 L 255.863281 21.152344 Z M 268.1875 7.082031 L 268.1875 0.0234375 L 265.476562 0.0234375 L 265.476562 17.46875 L 268.1875 17.46875 L 268.1875 9.328125 L 271.558594 9.328125 L 271.558594 7.089844 Z M 292.707031 11.324219 C 289.472656 10.433594 287.191406 7.542969 287.074219 4.1875 L 287.074219 3.761719 L 292.050781 3.761719 L 292.050781 1.542969 L 279.277344 1.542969 L 279.277344 3.761719 L 284.335938 3.761719 L 284.335938 4.179688 C 284.265625 7.710938 281.890625 10.785156 278.488281 11.738281 L 279.910156 13.882812 C 282.542969 13.003906 284.667969 11.023438 285.730469 8.457031 C 286.800781 10.828125 288.832031 12.632812 291.3125 13.410156 Z M 281.648438 17.703125 L 294.578125 17.703125 L 294.578125 23.816406 L 297.292969 23.816406 L 297.292969 15.519531 L 281.648438 15.519531 Z M 300.660156 6.085938 L 297.292969 6.085938 L 297.292969 0 L 294.578125 0 L 294.578125 14.359375 L 297.292969 14.359375 L 297.292969 8.324219 L 300.660156 8.324219 Z M 313.167969 2.949219 C 316.644531 2.949219 318.832031 3.921875 318.832031 5.585938 C 318.832031 7.273438 316.644531 8.246094 313.167969 8.246094 C 309.664062 8.246094 307.484375 7.277344 307.484375 5.585938 C 307.484375 3.925781 309.667969 2.949219 313.171875 2.949219 Z M 313.167969 10.4375 C 318.296875 10.4375 321.648438 8.621094 321.648438 5.585938 C 321.648438 2.582031 318.304688 0.765625 313.167969 0.765625 C 308.03125 0.765625 304.691406 2.582031 304.691406 5.585938 C 304.691406 8.617188 308.035156 10.433594 313.171875 10.433594 Z M 307.851562 16.441406 L 305.113281 16.441406 L 305.113281 23.375 L 321.519531 23.375 L 321.519531 21.15625 L 307.851562 21.15625 Z M 302.402344 12.359375 L 302.402344 14.578125 L 323.917969 14.578125 L 323.917969 12.359375 Z M 334.875 11.171875 L 340.667969 11.171875 L 340.667969 2.53125 L 332.210938 2.53125 L 332.210938 4.71875 L 338.058594 4.71875 L 338.058594 8.988281 L 332.261719 8.988281 L 332.261719 18.101562 L 333.894531 18.101562 C 336.859375 18.15625 339.820312 17.945312 342.746094 17.46875 L 342.507812 15.226562 C 339.984375 15.648438 337.429688 15.859375 334.871094 15.859375 Z M 344.410156 8.351562 L 341.722656 8.351562 L 341.722656 10.589844 L 344.410156 10.589844 L 344.410156 22.632812 L 346.9375 22.632812 L 346.9375 0.554688 L 344.410156 0.554688 Z M 349.226562 0.03125 L 349.226562 23.816406 L 351.808594 23.816406 L 351.808594 0.0273438 Z M 375.855469 11.644531 C 371.167969 10.800781 367.347656 7.140625 367.347656 3.347656 L 367.347656 1.554688 L 364.476562 1.554688 L 364.476562 3.347656 C 364.476562 7.113281 360.660156 10.777344 355.96875 11.644531 L 357.128906 13.882812 C 360.902344 13.175781 364.140625 10.765625 365.898438 7.351562 C 367.660156 10.765625 370.894531 13.175781 374.667969 13.882812 Z M 355.234375 18.523438 L 355.234375 20.761719 L 376.777344 20.761719 L 376.777344 18.523438 Z M 391.050781 18.785156 L 391.050781 14.300781 L 398.082031 14.300781 L 398.082031 12.144531 L 384.359375 12.144531 L 384.359375 9.03125 L 397.34375 9.03125 L 397.34375 6.898438 L 384.363281 6.898438 L 384.363281 4.027344 L 397.871094 4.027344 L 397.871094 1.808594 L 381.597656 1.808594 L 381.597656 14.300781 L 388.3125 14.300781 L 388.3125 18.78125 L 378.9375 18.78125 L 378.9375 21.023438 L 400.480469 21.023438 L 400.480469 18.785156 Z M 416.464844 10.195312 C 413.089844 10.769531 409.671875 11.027344 406.246094 10.960938 L 406.246094 8.246094 L 414.332031 8.246094 L 414.332031 1.453125 L 403.535156 1.453125 L 403.535156 3.636719 L 411.648438 3.636719 L 411.648438 6.195312 L 403.585938 6.195312 L 403.585938 13.175781 L 405.511719 13.175781 C 409.273438 13.269531 413.039062 13.015625 416.757812 12.410156 Z M 413.515625 21.734375 C 410.144531 21.734375 408.25 20.917969 408.25 19.390625 C 408.25 17.890625 410.144531 17.074219 413.515625 17.074219 C 416.863281 17.074219 418.785156 17.890625 418.785156 19.390625 C 418.785156 20.917969 416.863281 21.734375 413.515625 21.734375 Z M 413.515625 14.964844 C 408.589844 14.964844 405.589844 16.597656 405.589844 19.390625 C 405.589844 22.183594 408.589844 23.816406 413.515625 23.816406 C 418.441406 23.816406 421.445312 22.183594 421.445312 19.390625 C 421.445312 16.597656 418.441406 14.964844 413.515625 14.964844 Z M 421.207031 5.796875 L 421.207031 0 L 418.496094 0 L 418.496094 14.332031 L 421.207031 14.332031 L 421.207031 8.035156 L 424.582031 8.035156 L 424.582031 5.796875 Z M 421.207031 5.796875 "/>
</g>
</svg>
