<?xml version="1.0" encoding="UTF-8"?>
<svg xmlns="http://www.w3.org/2000/svg" xmlns:xlink="http://www.w3.org/1999/xlink" width="605px" height="101px" viewBox="0 0 604 101" version="1.1">
<g id="surface1">
<path style=" stroke:none;fill-rule:nonzero;fill:rgb(0%,0%,0%);fill-opacity:1;" d="M 202.378906 2.027344 L 202.378906 5.078125 L 213.601562 5.078125 C 212.984375 10.03125 208.53125 14.019531 200.894531 16.046875 L 202.34375 19.015625 C 212.007812 16.445312 217.617188 10.507812 217.617188 2.035156 Z M 209.398438 22.882812 L 222.902344 22.882812 L 222.902344 29.363281 L 209.398438 29.363281 Z M 205.707031 32.371094 L 226.59375 32.371094 L 226.59375 19.914062 L 205.710938 19.914062 Z M 231.238281 7.640625 L 226.605469 7.640625 L 226.605469 0.0351562 L 222.871094 0.0351562 L 222.871094 18.503906 L 226.597656 18.503906 L 226.597656 10.71875 L 231.234375 10.71875 Z M 248.355469 29.90625 C 243.574219 29.90625 240.898438 28.855469 240.898438 26.828125 C 240.898438 24.839844 243.574219 23.753906 248.355469 23.753906 C 253.132812 23.753906 255.847656 24.839844 255.847656 26.828125 C 255.847656 28.855469 253.136719 29.90625 248.355469 29.90625 Z M 248.355469 20.890625 C 241.367188 20.890625 237.097656 23.0625 237.097656 26.828125 C 237.097656 30.640625 241.367188 32.804688 248.355469 32.804688 C 255.378906 32.804688 259.613281 30.632812 259.613281 26.828125 C 259.613281 23.0625 255.378906 20.890625 248.355469 20.890625 Z M 250.308594 15.859375 L 250.308594 12.601562 L 259.835938 12.601562 L 259.835938 9.589844 L 241.046875 9.589844 L 241.046875 4.484375 L 259.617188 4.484375 L 259.617188 1.515625 L 237.347656 1.515625 L 237.347656 12.601562 L 246.582031 12.601562 L 246.582031 15.859375 L 233.691406 15.859375 L 233.691406 18.90625 L 263.226562 18.90625 L 263.226562 15.859375 Z M 276.773438 2.347656 C 271.671875 2.347656 267.90625 5.570312 267.90625 10.203125 C 267.90625 14.839844 271.671875 18.0625 276.773438 18.0625 C 281.878906 18.0625 285.679688 14.839844 285.679688 10.203125 C 285.679688 5.570312 281.878906 2.347656 276.773438 2.347656 Z M 276.773438 5.535156 C 278.105469 5.386719 279.4375 5.8125 280.4375 6.703125 C 281.4375 7.59375 282.015625 8.867188 282.023438 10.203125 C 282.003906 11.539062 281.425781 12.808594 280.425781 13.695312 C 279.429688 14.582031 278.105469 15.011719 276.773438 14.875 C 275.449219 15.007812 274.128906 14.578125 273.140625 13.6875 C 272.148438 12.800781 271.574219 11.535156 271.5625 10.203125 C 271.570312 8.871094 272.140625 7.605469 273.136719 6.71875 C 274.128906 5.828125 275.449219 5.402344 276.773438 5.539062 Z M 289.375 0.03125 L 289.375 32.808594 L 293.136719 32.808594 L 293.136719 0.03125 Z M 266.855469 25.886719 C 273.824219 26.042969 280.792969 25.558594 287.671875 24.441406 L 287.417969 21.722656 C 280.441406 22.582031 273.414062 22.945312 266.386719 22.8125 Z M 322.894531 25.851562 L 322.894531 19.6875 L 332.5625 19.6875 L 332.5625 16.726562 L 313.699219 16.726562 L 313.699219 12.449219 L 331.546875 12.449219 L 331.546875 9.515625 L 313.699219 9.515625 L 313.699219 5.566406 L 332.273438 5.566406 L 332.273438 2.519531 L 309.898438 2.519531 L 309.898438 19.6875 L 319.132812 19.6875 L 319.132812 25.84375 L 306.242188 25.84375 L 306.242188 28.929688 L 335.855469 28.929688 L 335.855469 25.851562 Z M 367.164062 16.039062 C 360.71875 14.882812 355.46875 9.847656 355.46875 4.632812 L 355.46875 2.171875 L 351.539062 2.171875 L 351.539062 4.632812 C 351.539062 9.8125 346.289062 14.84375 339.847656 16.039062 L 341.429688 19.117188 C 346.621094 18.144531 351.066406 14.832031 353.488281 10.136719 C 355.90625 14.832031 360.355469 18.144531 365.542969 19.117188 Z M 338.824219 25.488281 L 338.824219 28.566406 L 368.4375 28.566406 L 368.4375 25.488281 Z M 376.582031 15.0625 L 386.683594 15.0625 L 386.683594 12.09375 L 376.582031 12.09375 L 376.582031 5.96875 L 388.015625 5.96875 L 388.015625 2.890625 L 372.855469 2.890625 L 372.855469 25.164062 L 375.425781 25.164062 C 380.34375 25.296875 385.265625 24.96875 390.121094 24.1875 L 389.796875 21.179688 C 385.425781 21.871094 381.007812 22.1875 376.582031 22.121094 Z M 394.792969 0.0078125 L 394.792969 12.027344 L 388.53125 12.027344 L 388.53125 15.105469 L 394.792969 15.105469 L 394.792969 32.804688 L 398.554688 32.804688 L 398.554688 0 Z M 394.792969 0.0078125 "/>
<path style=" stroke:none;fill-rule:nonzero;fill:rgb(0%,0%,0%);fill-opacity:1;" d="M 0 63.125 L 17.109375 63.125 C 20.75 62.9375 24.328125 64.128906 27.125 66.464844 C 28.789062 68.117188 29.695312 70.382812 29.628906 72.726562 L 29.628906 72.867188 C 29.675781 76.523438 27.542969 79.859375 24.203125 81.355469 C 28.65625 82.878906 31.714844 85.390625 31.714844 90.675781 C 31.714844 97.496094 26.152344 101.113281 17.664062 101.113281 L 0 101.113281 Z M 22.953125 73.84375 C 22.953125 70.785156 20.589844 68.972656 16.285156 68.972656 L 6.539062 68.972656 L 6.539062 79.128906 L 15.71875 79.128906 C 20.03125 79.128906 22.960938 77.460938 22.960938 73.84375 M 17.25 84.835938 L 6.539062 84.835938 L 6.539062 95.273438 L 17.667969 95.273438 C 22.261719 95.273438 25.042969 93.464844 25.042969 89.984375 L 25.042969 89.851562 C 25.042969 86.792969 22.539062 84.84375 17.25 84.84375 M 52.3125 62.847656 L 58.433594 62.847656 L 75.128906 101.253906 L 68.171875 101.253906 L 64.277344 92.070312 L 46.328125 92.070312 L 42.429688 101.253906 L 35.613281 101.253906 Z M 61.773438 86.085938 L 55.234375 70.78125 L 48.695312 86.085938 Z M 81.808594 63.125 L 88.476562 63.125 L 88.476562 95.132812 L 108.519531 95.132812 L 108.519531 101.253906 L 81.808594 101.253906 Z M 115.476562 63.125 L 122.570312 63.125 L 134.121094 81.078125 L 145.667969 63.125 L 152.761719 63.125 L 152.761719 101.253906 L 146.09375 101.253906 L 146.09375 73.84375 L 134.128906 91.796875 L 133.851562 91.796875 L 122.015625 73.980469 L 122.015625 101.253906 L 115.476562 101.253906 Z M 162.082031 84.972656 L 162.082031 63.125 L 168.753906 63.125 L 168.753906 84.835938 C 168.753906 91.929688 172.371094 95.695312 178.351562 95.695312 C 184.332031 95.695312 187.949219 92.21875 187.949219 85.121094 L 187.949219 63.125 L 194.621094 63.125 L 194.621094 84.695312 C 194.621094 96.105469 188.21875 101.808594 178.203125 101.808594 C 168.324219 101.808594 162.0625 96.105469 162.0625 84.972656 M 203.824219 63.125 L 218.011719 63.125 C 229.980469 63.125 238.328125 71.335938 238.328125 82.050781 L 238.328125 82.191406 C 238.328125 92.90625 230.117188 101.246094 218.011719 101.246094 L 203.824219 101.246094 Z M 210.492188 69.25 L 210.492188 95.132812 L 218.003906 95.132812 C 226.074219 95.132812 231.222656 89.707031 231.222656 82.332031 L 231.222656 82.191406 C 231.355469 78.671875 229.992188 75.257812 227.476562 72.792969 C 224.960938 70.328125 221.519531 69.042969 218.003906 69.25 Z M 257.25 62.847656 L 263.511719 62.847656 L 280.203125 101.253906 L 273.109375 101.253906 L 269.210938 92.070312 L 251.265625 92.070312 L 247.367188 101.253906 L 240.550781 101.253906 Z M 266.847656 86.085938 L 260.308594 70.78125 L 253.769531 86.085938 Z M 305.664062 69.25 L 293.5625 69.25 L 293.5625 63.125 L 324.445312 63.125 L 324.445312 69.390625 L 312.34375 69.390625 L 312.34375 101.253906 L 305.527344 101.253906 L 305.527344 69.25 Z M 330.292969 61.457031 L 336.832031 61.457031 L 336.832031 76.902344 C 338.738281 73.742188 342.183594 71.832031 345.875 71.894531 C 352.414062 71.894531 356.164062 76.207031 356.164062 82.886719 L 356.164062 101.253906 L 349.632812 101.253906 L 349.632812 84.835938 C 349.632812 80.378906 347.40625 77.875 343.511719 77.875 C 341.664062 77.839844 339.894531 78.59375 338.640625 79.953125 C 337.390625 81.308594 336.785156 83.136719 336.972656 84.972656 L 336.972656 101.253906 L 330.433594 101.253906 L 330.433594 61.457031 Z M 362.152344 86.921875 C 362.152344 78.574219 367.996094 71.894531 376.207031 71.894531 C 385.386719 71.894531 389.980469 79.136719 389.980469 87.339844 C 390.003906 87.945312 389.957031 88.554688 389.839844 89.148438 L 368.6875 89.148438 C 369.042969 93.371094 372.660156 96.5625 376.894531 96.390625 C 379.871094 96.390625 382.707031 95.121094 384.691406 92.902344 L 388.585938 96.378906 C 385.675781 99.898438 381.324219 101.894531 376.761719 101.808594 C 372.808594 101.910156 368.988281 100.367188 366.21875 97.542969 C 363.449219 94.71875 361.976562 90.871094 362.152344 86.917969 M 383.4375 84.824219 C 383.023438 80.507812 380.519531 77.308594 376.199219 77.308594 C 372.164062 77.308594 369.382812 80.371094 368.6875 84.824219 Z M 415.300781 69.238281 L 403.195312 69.238281 L 403.195312 63.125 L 434.082031 63.125 L 434.082031 69.390625 L 421.980469 69.390625 L 421.980469 101.253906 L 415.160156 101.253906 L 415.160156 69.25 Z M 432.691406 86.910156 C 432.785156 78.578125 439.527344 71.851562 447.859375 71.773438 C 456.191406 71.699219 463.054688 78.304688 463.300781 86.632812 L 463.300781 86.773438 C 463.292969 90.828125 461.652344 94.710938 458.746094 97.539062 C 455.835938 100.371094 451.914062 101.90625 447.859375 101.800781 C 443.855469 101.902344 439.980469 100.375 437.121094 97.566406 C 434.265625 94.761719 432.667969 90.917969 432.691406 86.910156 M 456.761719 86.910156 C 456.886719 84.5 456.019531 82.140625 454.367188 80.378906 C 452.710938 78.621094 450.410156 77.613281 447.996094 77.589844 C 445.609375 77.585938 443.324219 78.574219 441.691406 80.316406 C 440.058594 82.058594 439.21875 84.398438 439.375 86.785156 L 439.375 86.921875 C 439.277344 89.316406 440.15625 91.644531 441.808594 93.375 C 443.460938 95.105469 445.746094 96.089844 448.140625 96.105469 C 450.519531 96.085938 452.785156 95.09375 454.414062 93.359375 C 456.042969 91.625 456.894531 89.300781 456.765625 86.921875 M 468.589844 86.921875 C 468.589844 77.320312 475.128906 71.894531 481.949219 71.894531 C 485.824219 71.839844 489.476562 73.714844 491.6875 76.90625 L 491.6875 72.453125 L 498.226562 72.453125 L 498.226562 101.253906 L 491.6875 101.253906 L 491.6875 96.523438 C 489.613281 99.910156 485.921875 101.96875 481.949219 101.949219 C 475.128906 101.808594 468.589844 96.382812 468.589844 86.921875 M 491.824219 86.921875 C 491.824219 81.214844 487.929688 77.597656 483.476562 77.597656 C 479.027344 77.597656 475.269531 81.078125 475.269531 86.78125 L 475.269531 86.921875 C 475.269531 92.488281 479.027344 96.105469 483.476562 96.105469 C 485.8125 96.019531 488.011719 95 489.585938 93.269531 C 491.15625 91.542969 491.964844 89.253906 491.824219 86.921875 M 504.210938 97.496094 L 507.132812 93.042969 C 509.835938 95.175781 513.148438 96.394531 516.589844 96.523438 C 519.375 96.523438 521.042969 95.273438 521.042969 93.464844 L 521.042969 93.324219 C 521.042969 91.097656 517.984375 90.261719 514.644531 89.289062 C 510.332031 88.035156 505.601562 86.367188 505.601562 80.800781 L 505.601562 80.660156 C 505.601562 75.234375 510.054688 71.894531 515.890625 71.894531 C 519.640625 71.972656 523.300781 73.078125 526.464844 75.09375 L 523.824219 79.828125 C 521.414062 78.226562 518.636719 77.269531 515.753906 77.042969 C 513.25 77.042969 511.71875 78.296875 511.71875 79.828125 L 511.71875 79.964844 C 511.71875 82.0625 514.777344 83.027344 518.257812 84 C 522.429688 85.253906 527.160156 87.199219 527.160156 92.351562 L 527.160156 92.488281 C 527.160156 98.472656 522.429688 101.535156 516.445312 101.535156 C 512.023438 101.628906 507.703125 100.203125 504.203125 97.496094 Z M 534.679688 93.183594 L 534.679688 78.15625 L 531.058594 78.15625 L 531.058594 72.453125 L 534.679688 72.453125 L 534.679688 64.519531 L 541.21875 64.519531 L 541.21875 72.453125 L 549.007812 72.453125 L 549.007812 78.15625 L 541.21875 78.15625 L 541.21875 92.210938 C 541.21875 94.714844 542.46875 95.828125 544.699219 95.828125 C 546.105469 95.871094 547.5 95.535156 548.734375 94.855469 L 548.734375 100.285156 C 546.921875 101.339844 544.847656 101.871094 542.75 101.808594 C 538.011719 101.667969 534.671875 99.585938 534.671875 93.183594 Z M 553.183594 86.921875 C 553.183594 78.574219 559.027344 71.894531 567.234375 71.894531 C 576.417969 71.894531 581.011719 79.132812 581.011719 87.339844 C 581.03125 87.945312 580.984375 88.550781 580.871094 89.148438 L 559.722656 89.148438 C 560.078125 93.371094 563.695312 96.5625 567.929688 96.386719 C 570.902344 96.390625 573.738281 95.125 575.71875 92.910156 L 579.617188 96.386719 C 576.707031 99.90625 572.351562 101.902344 567.789062 101.816406 C 563.835938 101.917969 560.015625 100.375 557.242188 97.550781 C 554.472656 94.726562 553 90.875 553.179688 86.921875 Z M 574.46875 84.824219 C 574.054688 80.511719 571.550781 77.3125 567.230469 77.3125 C 563.195312 77.3125 560.414062 80.371094 559.71875 84.824219 Z M 587.6875 72.4375 L 594.226562 72.4375 L 594.226562 78.988281 C 596.035156 74.675781 599.371094 71.75 604.382812 72.03125 L 604.382812 78.988281 L 603.964844 78.988281 C 598.261719 78.988281 594.226562 82.746094 594.226562 90.402344 L 594.226562 101.394531 L 587.6875 101.394531 Z M 587.6875 72.4375 "/>
</g>
</svg>
