<svg xmlns="http://www.w3.org/2000/svg" xmlns:xlink="http://www.w3.org/1999/xlink" width="448" height="75.113" viewBox="0 0 448 75.113"><defs><clipPath id="a"><rect width="448" height="37.4" transform="translate(0 0)" fill="none"/></clipPath></defs><g transform="translate(-654.811 -384.287)"><g transform="translate(0 55)"><g transform="translate(654.811 367)"><g clip-path="url(#a)"><path d="M0,1.3H13.2c3.4,0,6,.9,7.7,2.6a6.632,6.632,0,0,1,2,4.9v.1a6.894,6.894,0,0,1-4.2,6.5c3.4,1.2,5.8,3.1,5.8,7.1v.1c0,5.2-4.3,8.1-10.9,8.1H0ZM17.7,9.6c0-2.3-1.8-3.7-5.2-3.7H5.1v7.8h7c3.3-.1,5.6-1.4,5.6-4.1M13.3,18H5.1v8h8.6c3.5,0,5.7-1.4,5.7-4v-.1c-.1-2.4-2.1-3.9-6.1-3.9m27-17H45L58,30.6H52.5l-3-7.1H35.6l-3,7.1H27.3Zm7.3,18-5-11.8-5,11.7h10ZM63,1.3h5.2V26H83.6v4.7H63Zm25.9,0h5.5l8.9,13.9,8.9-13.9h5.5V30.7h-5.2V9.6l-9.3,13.8H103L94,9.6v21H88.9Zm36,16.9V1.3h5.2V18c0,5.5,2.8,8.3,7.4,8.3s7.4-2.7,7.4-8.1V1.3h5.2V17.9c0,8.8-4.9,13.2-12.6,13.2C129.7,31.1,124.9,26.7,124.9,18.2ZM157.1,1.3H168c9.2,0,15.6,6.3,15.6,14.6V16c0,8.3-6.4,14.7-15.6,14.7H157.1ZM162.2,6V26H168c6.2,0,10.2-4.2,10.2-9.9V16c0-5.7-4-10-10.2-10Zm36-5H203l12.9,29.6h-5.5l-3-7.1H193.5l-3,7.1h-5.3Zm7.4,18L200.5,7.3l-5,11.7ZM235.5,6h-9.3V1.3H250V6h-9.3V30.6h-5.2Zm19-6h5.1V11.9A7.819,7.819,0,0,1,266.5,8c5,0,7.9,3.4,7.9,8.5V30.6h-5.1V18c0-3.4-1.7-5.4-4.7-5.4-2.9,0-5,2.1-5,5.5V30.6h-5.1Zm24.6,19.6c0-6.4,4.5-11.6,10.8-11.6,7,0,10.6,5.5,10.6,11.9a6.6,6.6,0,0,1-.1,1.4H284.1a6.146,6.146,0,0,0,6.4,5.6,8.1,8.1,0,0,0,6-2.6l3,2.6a11.324,11.324,0,0,1-9.1,4.2c-6.4,0-11.3-4.6-11.3-11.5M295.5,18c-.3-3.3-2.3-5.8-5.6-5.8-3.1,0-5.3,2.4-5.7,5.8Zm22-16.7h13.1c3.7,0,6.6,1.1,8.5,2.9a8.678,8.678,0,0,1,2.4,6.3v.1c0,4.8-2.9,7.7-7,8.9l7.9,11.1h-6.1l-7.2-10.2h-6.5V30.6h-5.2V1.3Zm12.7,14.5c3.7,0,6-1.9,6-4.9v-.1c0-3.1-2.3-4.9-6.1-4.9h-7.5v9.9Zm14.6,3.8c0-7.4,5-11.6,10.3-11.6a8.9,8.9,0,0,1,7.5,3.9V8.5h5.1V30.6h-5.1V26.9a8.792,8.792,0,0,1-7.5,4.2c-5.2,0-10.3-4.2-10.3-11.5m18,0c0-4.4-3-7.2-6.4-7.2-3.5,0-6.4,2.7-6.4,7.1v.1c0,4.3,2.9,7.1,6.4,7.1,3.3,0,6.4-2.9,6.4-7.1M374.3,8.5h5.1v3.4A7.944,7.944,0,0,1,386.3,8c5,0,7.9,3.4,7.9,8.5V30.6h-5.1V18c0-3.4-1.7-5.4-4.7-5.4-2.9,0-5,2.1-5,5.5V30.6h-5.1Zm25.8,26.3L402,31a14.333,14.333,0,0,0,7.9,2.3c4.5,0,7-2.3,7-6.8V24.8a9.281,9.281,0,0,1-7.8,4.1A10.014,10.014,0,0,1,399,18.5v-.1A9.994,9.994,0,0,1,409,8a9.7,9.7,0,0,1,7.8,3.8V8.5h5.1V26.1c0,3.7-1,6.5-2.8,8.3-2,2-5.1,3-9.1,3a18.98,18.98,0,0,1-9.9-2.6m16.8-16.3a6.236,6.236,0,0,0-6.5-6.2,5.988,5.988,0,0,0-6.3,6.1v.1a6.047,6.047,0,0,0,6.3,6.1c3.5-.1,6.5-2.5,6.5-6.1m9.7,1.1c0-6.4,4.5-11.6,10.8-11.6,7,0,10.6,5.5,10.6,11.9a6.6,6.6,0,0,1-.1,1.4H431.6a6.146,6.146,0,0,0,6.4,5.6,8.1,8.1,0,0,0,6-2.6l3,2.6a11.324,11.324,0,0,1-9.1,4.2,11.033,11.033,0,0,1-11.3-11.5M443,18c-.3-3.3-2.3-5.8-5.6-5.8-3.1,0-5.3,2.4-5.7,5.8Z"/></g></g><path d="M-80.456-7.3a8.314,8.314,0,0,0,6.194-3.724A8.353,8.353,0,0,0-68.049-7.3l.7-1.539c-3.268-.437-5.681-2.318-5.795-4.313h5.187v-1.577H-80.589v1.577h5.225c-.114,2-2.527,3.876-5.8,4.313Zm13.965,1.254H-82.014v1.577h6.726V1.482h1.957V-4.465h6.821Zm8.322-2.147h-4.2V-10.7h4.2Zm1.938-6.422h-1.938v2.375h-4.2v-2.375h-1.957v7.98h8.094ZM-57.048-.057c-2.394,0-3.781-.608-3.781-1.729,0-1.1,1.387-1.71,3.781-1.71s3.781.608,3.781,1.71C-53.267-.665-54.654-.057-57.048-.057Zm0-5c-3.534,0-5.719,1.235-5.719,3.268,0,2.052,2.185,3.268,5.719,3.268s5.719-1.216,5.719-3.268C-51.329-3.819-53.514-5.054-57.048-5.054Zm5.529-6.46v-4.18h-1.957V-5.453h1.957V-9.9h2.432v-1.615Zm9.728,1.254a2.509,2.509,0,0,1,2.641-2.584,2.525,2.525,0,0,1,2.66,2.584,2.529,2.529,0,0,1-2.66,2.6A2.514,2.514,0,0,1-41.791-10.26Zm7.22,0a4.3,4.3,0,0,0-4.579-4.275,4.294,4.294,0,0,0-4.56,4.275,4.309,4.309,0,0,0,4.56,4.294A4.314,4.314,0,0,0-34.571-10.26Zm-4.845,5.852h-1.976V1.14H-29.84v-1.6h-9.576Zm8.892-6.194v-5.092h-1.957V-3.116h1.957V-8.987h2.432V-10.6Zm17.689,3.059A5.536,5.536,0,0,1-16.9-12.692V-13h3.591v-1.6h-9.215V-13h3.648v.3a5.779,5.779,0,0,1-4.218,5.453L-22.069-5.7a6.921,6.921,0,0,0,4.2-3.914,6.577,6.577,0,0,0,4.028,3.572Zm-7.98,4.6h9.329V1.463h1.957V-4.522H-20.815ZM-7.1-11.324H-9.529v-4.389h-1.957V-5.358h1.957V-9.709H-7.1Zm9.025-2.261c2.508,0,4.085.7,4.085,1.9,0,1.216-1.577,1.919-4.085,1.919-2.527,0-4.1-.7-4.1-1.919C-2.176-12.882-.6-13.585,1.928-13.585Zm0,5.4c3.7,0,6.118-1.311,6.118-3.5,0-2.166-2.413-3.477-6.118-3.477S-4.19-13.851-4.19-11.685C-4.19-9.5-1.777-8.189,1.928-8.189ZM-1.91-3.857H-3.886v5H7.951v-1.6H-1.91ZM-5.843-6.8v1.6H9.68V-6.8Zm23.427-.855h4.18v-6.232h-6.1v1.577h4.218v3.078H15.7V-2.66h1.178a35.445,35.445,0,0,0,6.384-.456l-.171-1.615a33.468,33.468,0,0,1-5.51.456ZM24.462-9.69H22.524v1.615h1.938V.608h1.824V-15.314H24.462Zm3.477-6V1.463H29.8V-15.694ZM47.148-7.315c-3.382-.608-6.137-3.249-6.137-5.985v-1.292H38.94V-13.3c0,2.717-2.755,5.358-6.137,5.985L33.639-5.7a8.984,8.984,0,0,0,6.327-4.712A8.984,8.984,0,0,0,46.293-5.7ZM32.271-2.356V-.741H47.813V-2.356Zm25.84.19V-5.4h5.073V-6.954h-9.9V-9.2h9.367v-1.539H53.285v-2.071h9.747v-1.6H51.29V-5.4h4.845v3.23H49.371V-.551H64.913V-2.166ZM76.446-8.36a39.5,39.5,0,0,1-7.372.551V-9.766h5.833v-4.9h-7.79v1.577h5.852v1.843H67.155v5.035h1.387a43.783,43.783,0,0,0,8.113-.551ZM74.318-.038c-2.432,0-3.8-.589-3.8-1.691,0-1.083,1.368-1.672,3.8-1.672,2.413,0,3.8.589,3.8,1.672C78.118-.627,76.731-.038,74.318-.038Zm0-4.883c-3.553,0-5.719,1.178-5.719,3.192s2.166,3.192,5.719,3.192S80.037.285,80.037-1.729,77.871-4.921,74.318-4.921Zm5.548-6.612v-4.18H77.91V-5.377h1.957V-9.918H82.3v-1.615Z" transform="translate(878.811 345)"/></g></g></svg>