<svg xmlns="http://www.w3.org/2000/svg" width="317.199" height="53.498" viewBox="0 0 317.199 53.498"><g transform="translate(-654.811 -377.267)"><g transform="translate(654.611 379.3)"><path d="M-51.785-14.668v1.6h5.89c-.323,2.6-2.66,4.693-6.669,5.757l.76,1.558c5.073-1.349,8.018-4.465,8.018-8.911ZM-48.1-3.724h7.087v3.4H-48.1Zm-1.938,4.978h10.963V-5.282H-50.036Zm13.4-12.977h-2.432v-3.99H-41.03v9.69h1.957v-4.085h2.432ZM-27.655-.038c-2.508,0-3.914-.551-3.914-1.615,0-1.045,1.406-1.615,3.914-1.615s3.933.57,3.933,1.615C-23.722-.589-25.146-.038-27.655-.038Zm0-4.731c-3.667,0-5.909,1.14-5.909,3.116,0,2,2.242,3.135,5.909,3.135,3.686,0,5.909-1.14,5.909-3.135C-21.746-3.629-23.969-4.769-27.655-4.769Zm1.026-2.641V-9.12h5V-10.7h-9.861v-2.679h9.747v-1.558H-33.431V-9.12h4.845v1.71H-35.35v1.6h15.5v-1.6ZM-12.739-14.5c-2.679,0-4.655,1.691-4.655,4.123s1.976,4.123,4.655,4.123,4.674-1.691,4.674-4.123S-10.06-14.5-12.739-14.5Zm0,1.672a2.484,2.484,0,0,1,2.755,2.451,2.5,2.5,0,0,1-2.755,2.451,2.488,2.488,0,0,1-2.736-2.451A2.478,2.478,0,0,1-12.739-12.825Zm6.612-2.888v17.2h1.976v-17.2ZM-17.945-2.147A59.724,59.724,0,0,0-7.02-2.907l-.133-1.425a78.439,78.439,0,0,1-11.039.57Zm29.412-.019V-5.4H16.54V-6.954h-9.9V-9.2h9.367v-1.539H6.641v-2.071h9.747v-1.6H4.646V-5.4H9.491v3.23H2.727V-.551H18.269V-2.166ZM34.7-7.315c-3.382-.608-6.137-3.249-6.137-5.985v-1.292H26.5V-13.3c0,2.717-2.755,5.358-6.137,5.985L21.195-5.7a8.984,8.984,0,0,0,6.327-4.712A8.984,8.984,0,0,0,33.849-5.7ZM19.827-2.356V-.741H35.369V-2.356ZM39.644-7.828h5.3V-9.386h-5.3V-12.6h6v-1.615H37.687V-2.527h1.349A41.426,41.426,0,0,0,46.75-3.04l-.171-1.577a40.743,40.743,0,0,1-6.935.494Zm9.557-7.9v6.308H45.914v1.615H49.2V1.482h1.976V-15.732Z" transform="translate(158.2 13.699)"/><path d="M0,.876H8.981a7.588,7.588,0,0,1,5.257,1.752,4.458,4.458,0,0,1,1.314,3.286v.073a4.814,4.814,0,0,1-2.848,4.454c2.337.8,3.943,2.118,3.943,4.892,0,3.578-2.921,5.477-7.375,5.477H0ZM12.048,6.5c0-1.606-1.241-2.556-3.5-2.556H3.432v5.33H8.251c2.264,0,3.8-.876,3.8-2.775M9.054,12.267H3.432v5.477H9.274c2.41,0,3.87-.949,3.87-2.775V14.9c0-1.606-1.314-2.629-4.089-2.629M27.456.73h3.213l8.762,20.154H35.78l-2.045-4.819h-9.42l-2.045,4.819H18.693Zm4.965,12.194L28.989,4.892l-3.432,8.032ZM42.936.876h3.5V17.671H56.956v3.213H42.936Zm17.671,0h3.724l6.061,9.42L76.452.876h3.724V20.884h-3.5V6.5l-6.28,9.42h-.146L64.039,6.572V20.884H60.607ZM85.068,12.34V.876h3.5V12.267c0,3.724,1.9,5.7,5.038,5.7s5.038-1.826,5.038-5.55V.876h3.5V12.194c0,5.988-3.359,8.981-8.616,8.981-5.184,0-8.47-2.994-8.47-8.835M106.974.876h7.448c6.28,0,10.661,4.308,10.661,9.931v.073c0,5.623-4.308,10-10.661,10h-7.448Zm3.5,3.213V17.671h3.943c4.235,0,6.937-2.848,6.937-6.718V10.88a6.556,6.556,0,0,0-6.937-6.791ZM135.014.73H138.3l8.762,20.154h-3.724l-2.045-4.819h-9.42l-2.045,4.819h-3.578Zm5.038,12.194-3.432-8.032-3.432,8.032Zm20.373-8.835h-6.353V.876h16.21V4.162H163.93V20.884h-3.578V4.089ZM173.35,0h3.432V8.105a5.437,5.437,0,0,1,4.746-2.629c3.432,0,5.4,2.264,5.4,5.769v9.639H183.5V12.267c0-2.337-1.168-3.651-3.213-3.651a3.381,3.381,0,0,0-3.432,3.724v8.543h-3.432V0Zm16.722,13.363c0-4.381,3.067-7.886,7.375-7.886,4.819,0,7.229,3.8,7.229,8.105a4.166,4.166,0,0,1-.073.949H193.5a4.153,4.153,0,0,0,4.308,3.8A5.481,5.481,0,0,0,201.9,16.5l2.045,1.826a7.862,7.862,0,0,1-6.207,2.848,7.48,7.48,0,0,1-7.667-7.813m11.172-1.1c-.219-2.264-1.533-3.943-3.8-3.943-2.118,0-3.578,1.606-3.943,3.943Zm16.722-8.178h-6.353V.876h16.21V4.162H221.47V20.884h-3.578V4.089Zm9.128,9.274a8.034,8.034,0,0,1,16.064-.146v.073a7.9,7.9,0,0,1-8.105,7.886,7.764,7.764,0,0,1-7.959-7.813m12.632,0a4.652,4.652,0,0,0-4.6-4.892A4.53,4.53,0,0,0,230.6,13.29v.073a4.632,4.632,0,0,0,4.6,4.819,4.573,4.573,0,0,0,4.527-4.819m6.207,0c0-5.038,3.432-7.886,7.01-7.886a6.109,6.109,0,0,1,5.111,2.629V5.769h3.432V20.884h-3.432V18.4a5.958,5.958,0,0,1-5.111,2.848c-3.578-.073-7.01-2.921-7.01-7.886m12.194,0c0-2.994-2.045-4.892-4.381-4.892s-4.308,1.826-4.308,4.819v.073c0,2.921,1.972,4.819,4.308,4.819a4.553,4.553,0,0,0,4.381-4.819m6.5,5.55,1.533-2.337a8.527,8.527,0,0,0,4.965,1.826c1.46,0,2.337-.657,2.337-1.606v-.073c0-1.168-1.606-1.606-3.359-2.118-2.264-.657-4.746-1.533-4.746-4.454v-.073c0-2.848,2.337-4.6,5.4-4.6a10.741,10.741,0,0,1,5.55,1.679l-1.387,2.483a8.921,8.921,0,0,0-4.235-1.46c-1.314,0-2.118.657-2.118,1.46v.073c0,1.1,1.606,1.606,3.432,2.118,2.191.657,4.673,1.679,4.673,4.381v.073c0,3.14-2.483,4.746-5.623,4.746A10.144,10.144,0,0,1,264.625,18.912Zm15.991-2.264V8.762h-1.9V5.769h1.9V1.606h3.432V5.769h4.089V8.762h-4.089v7.375c0,1.314.657,1.9,1.826,1.9a4.136,4.136,0,0,0,2.118-.511v2.848a5.886,5.886,0,0,1-3.14.8C282.369,21.1,280.616,20.008,280.616,16.649Zm9.712-3.286c0-4.381,3.067-7.886,7.375-7.886,4.819,0,7.229,3.8,7.229,8.105a4.163,4.163,0,0,1-.073.949h-11.1a4.153,4.153,0,0,0,4.308,3.8,5.481,5.481,0,0,0,4.089-1.826l2.045,1.826a7.862,7.862,0,0,1-6.207,2.848A7.48,7.48,0,0,1,290.328,13.363Zm11.172-1.1c-.219-2.264-1.533-3.943-3.8-3.943-2.118,0-3.578,1.606-3.943,3.943Zm6.937-6.5h3.432V9.2c.949-2.264,2.7-3.8,5.33-3.651V9.2h-.219c-2.994,0-5.111,1.972-5.111,5.988v5.769h-3.432Z" transform="translate(0.199 30.217)"/></g></g></svg>