<svg xmlns="http://www.w3.org/2000/svg" width="605.379" height="104.028" viewBox="0 0 605.379 104.028"><path d="M0,1.817H19.036c4.849,0,8.669,1.335,11.094,3.759a9.505,9.505,0,0,1,2.849,7.033v.12c0,5.093-2.91,7.821-6.062,9.457,4.971,1.7,8.426,4.547,8.426,10.306v.122c0,7.577-6.244,11.64-15.7,11.64H0Zm25.522,12c0-3.334-2.667-5.4-7.456-5.4H7.336V19.7H17.52c4.789,0,8-1.879,8-5.759ZM19.157,26.006H7.336V37.648H19.7c5.092,0,8.184-2,8.184-5.82v-.121c0-3.576-2.85-5.7-8.73-5.7M58.193,1.515H65.1L83.776,44.254H75.9L71.6,34.009H51.524L47.16,44.254H39.521ZM68.863,27.4,61.527,10.427,54.254,27.4ZM91.046,1.817H98.5V37.464h22.309v6.79H91.046Zm37.521,0h7.941l12.913,20.066L162.33,1.817h7.942V44.255h-7.457V13.822l-13.4,20h-.242L135.9,13.943V44.255h-7.336Zm51.948,24.431V1.818h7.456v24.13c0,7.881,4.062,12.064,10.731,12.064,6.607,0,10.669-3.94,10.669-11.761V1.818h7.457V25.885c0,12.671-7.154,19.036-18.248,19.036-11.032,0-18.065-6.365-18.065-18.672M227.068,1.818h15.823c13.337,0,22.552,9.154,22.552,21.1v.121c0,11.943-9.215,21.218-22.552,21.218H227.068Zm7.457,6.79V37.465h8.366c8.911,0,14.731-6,14.731-14.308v-.121c0-8.306-5.82-14.428-14.731-14.428Zm52.011-7.093h6.91l18.672,42.739h-7.881l-4.3-10.245h-20.07L275.5,44.254h-7.639ZM297.206,27.4,289.87,10.427,282.6,27.4ZM340.453,8.729H326.994V1.817h34.435V8.729h-13.46V44.254h-7.516ZM367.85,0h7.336V17.156c2.061-2.969,5.031-5.577,10-5.577,7.214,0,11.4,4.849,11.4,12.246v20.43H389.25V26.067c0-4.971-2.485-7.82-6.851-7.82-4.243,0-7.213,2.969-7.213,7.941V44.255H367.85Zm35.521,28.371V28.25c0-9.154,6.486-16.672,15.64-16.672,10.185,0,15.337,8,15.337,17.217,0,.667-.061,1.334-.12,2.062H410.706c.788,5.213,4.487,8.123,9.215,8.123,3.578,0,6.123-1.334,8.669-3.82l4.3,3.82a16.19,16.19,0,0,1-13.094,6c-9.274,0-16.428-6.73-16.428-16.611M427.068,26c-.486-4.729-3.274-8.427-8.124-8.427-4.486,0-7.639,3.455-8.306,8.427ZM456.5,1.817h19.036c4.851,0,8.669,1.335,11.1,3.759a9.5,9.5,0,0,1,2.848,7.033v.12c0,5.093-2.91,7.821-6.062,9.457,4.972,1.7,8.427,4.547,8.427,10.306v.122c0,7.577-6.245,11.64-15.7,11.64H456.5Zm25.523,12c0-3.334-2.667-5.4-7.457-5.4h-10.73V19.7h10.185c4.789,0,8-1.879,8-5.759Zm-6.366,12.189H463.837V37.648H476.2c5.093,0,8.184-2,8.184-5.82v-.121c0-3.576-2.849-5.7-8.73-5.7m23.758-13.761h7.336v7.213c2-4.789,5.7-8.062,11.336-7.82V19.4h-.424c-6.426,0-10.912,4.183-10.912,12.67V44.254h-7.336ZM521.6,28.371V28.25c0-9.154,6.486-16.672,15.64-16.672,10.185,0,15.337,8,15.337,17.217,0,.667-.061,1.334-.12,2.062H528.936c.788,5.213,4.487,8.123,9.215,8.123,3.577,0,6.123-1.334,8.669-3.82l4.3,3.82a16.19,16.19,0,0,1-13.094,6c-9.274,0-16.428-6.73-16.428-16.611M545.3,26c-.486-4.729-3.274-8.427-8.123-8.427-4.486,0-7.639,3.455-8.306,8.427ZM557,12.245h7.518l6.426,21.945,7.093-22.067h6.3l7.093,22.067,6.548-21.945h7.4L594.891,44.5h-6.608l-7.154-21.884L573.915,44.5h-6.546Z" fill="#1a1311"/><path d="M-128.427-19.318h-2.6v4.238c0,4-1.612,8.216-4.94,10.192l1.638,2.028A11.314,11.314,0,0,0-129.7-9.594a10.71,10.71,0,0,0,4.342,6.214l1.508-2.08c-3.146-1.976-4.576-5.954-4.576-9.75Zm5.512,6.058h-3.458v2.184h3.458V.91h2.522V-21.034h-2.522Zm4.784-8.216V2h2.548V-21.476Zm19.552,10.738a7.5,7.5,0,0,1-5.486-7.02V-20.28h-2.7v2.314a8.206,8.206,0,0,1-5.694,7.852l1.43,2.132a9.654,9.654,0,0,0,5.668-5.564,9.246,9.246,0,0,0,5.382,4.914ZM-101.465-.1c-3.276,0-5.174-.806-5.174-2.314,0-1.456,1.9-2.288,5.174-2.288s5.174.832,5.174,2.288C-96.291-.91-98.189-.1-101.465-.1Zm0-6.708c-4.836,0-7.826,1.638-7.826,4.394,0,2.782,2.99,4.42,7.826,4.42,4.862,0,7.826-1.638,7.826-4.42C-93.639-5.174-96.6-6.812-101.465-6.812Zm7.566-8.866V-21.5h-2.678V-7.384H-93.9v-6.084h3.328v-2.21ZM-83.551-5.512c-1.612,0-2.6-2.106-2.6-5.824s.988-5.8,2.6-5.8,2.6,2.08,2.6,5.8S-81.939-5.512-83.551-5.512Zm7.514-7.072h-2.522c-.286-4.394-2.184-7.072-4.992-7.072-3.042,0-5.044,3.172-5.044,8.32s2,8.346,5.044,8.346c2.86,0,4.784-2.808,5.018-7.384h2.5V.884h2.5V-21.034h-2.5Zm4.706-8.892V1.976h2.548V-21.476Zm14.4,1.9h-2.7V-15.7c0,4.394-2.288,8.918-5.954,10.712l1.69,2.132A12.137,12.137,0,0,0-58.253-10.3,11.573,11.573,0,0,0-52.689-3.25L-51.1-5.408c-3.588-1.664-5.824-5.928-5.824-10.3Zm8.294-1.95v7.722h-5.018v2.184h5.018V2.028h2.7V-21.528Zm13.078,2.522v2.184h8.216c-.546,5.408-3.64,9.542-9.386,12.48l1.482,2.054c7.67-3.874,10.582-9.906,10.582-16.718Zm20.592,6.786h-3.562V-21.5H-21.2V1.976h2.678V-9.984h3.562ZM.481-10.426C-3.107-11.57-5.057-14.3-5.057-17.212v-.442H-.143v-2.158h-12.61v2.158h4.992v.468A7.992,7.992,0,0,1-13.507-9.7l1.352,2.106a9.556,9.556,0,0,0,5.824-5.46A8.818,8.818,0,0,0-.819-8.346ZM-2.535-.1c-3.276,0-5.174-.832-5.174-2.34,0-1.534,1.9-2.34,5.174-2.34s5.174.806,5.174,2.34C2.639-.936.741-.1-2.535-.1Zm0-6.786c-4.836,0-7.826,1.638-7.826,4.446C-10.361.338-7.371,2-2.535,2S5.291.338,5.291-2.444C5.291-5.252,2.3-6.89-2.535-6.89Zm7.566-8.866v-5.72H2.353v14.04H5.031v-6.11H8.359v-2.21Zm11.544-3.25v2.184h8.216c-.546,5.408-3.64,9.542-9.386,12.48l1.482,2.054c7.67-3.874,10.582-9.906,10.582-16.718ZM37.167-12.22H33.605V-21.5H30.927V1.976h2.678V-9.984h3.562Zm2.288-6.786v2.21h3.822C43.043-12.09,41.9-8.19,38.545-4.628l2.132,1.482C44.863-7.7,45.8-12.974,45.8-19.006Zm7.15,0v2.21h3.12c-.182,5.07-1.144,9.646-4.524,13.7l2.158,1.508c4.186-5.122,4.888-11.258,4.888-17.42ZM60.7-12.012H57.369v-9.464H54.691V1.976h2.678V-9.8H60.7ZM72.839-18.8c3.3,0,5.46.962,5.46,2.626s-2.158,2.626-5.46,2.626c-3.328,0-5.486-.962-5.486-2.626S69.511-18.8,72.839-18.8Zm0,7.41c5.018,0,8.32-1.846,8.32-4.784s-3.3-4.784-8.32-4.784c-5.044,0-8.32,1.846-8.32,4.784S67.795-11.388,72.839-11.388Zm-5.3,6.006h-2.7V1.56H81.159V-.624H67.535ZM62.2-9.8v2.184h9.464v4.446H74.4V-7.618h9.1V-9.8Zm30.186-9.334v2.184h8.034a19.967,19.967,0,0,1-.624,3.666l-8.606.546.364,2.314,7.436-.728c-1.378,2.886-3.848,5.33-7.956,7.384l1.456,2.08c8.528-4.29,10.582-10.426,10.582-17.446ZM112.7-12.22h-3.562V-21.5h-2.678V1.976h2.678V-9.984H112.7Zm6.006-4.264h2.366v10.53c-.806.052-1.586.078-2.366.1Zm4.81,0h1.742v-2.158H114.569v2.158h1.69V-5.8H114.1l.312,2.21a65.207,65.207,0,0,0,11.466-.832L125.7-6.37c-.676.1-1.43.182-2.184.26Zm3.874,3.77H124.6v2.366h2.782V.832h2.522V-20.956h-2.522Zm4.6-8.762V2h2.574V-21.476Z" transform="translate(287 102)"/></svg>