<svg id="レイヤー_1" width="213" height="252" xmlns="http://www.w3.org/2000/svg" preserveAspectRatio="meet" viewBox="0 0 211.8 250.2"><style>.st0{fill:#FFFFFF;}</style><path d="M11.7 250.1c-4.6 0-8.2-1.5-11.7-4.6l1.4-1.6c3.2 2.9 6.1 4.3 10.4 4.3 4.3 0 7.3-2.4 7.3-5.8v-.1c0-3.1-1.6-4.8-8.2-6.2-7-1.4-9.8-3.8-9.8-8.2v-.1c0-4.3 3.9-7.6 9.3-7.6 4.2 0 7 1.2 9.9 3.5l-1.4 1.7c-2.7-2.4-5.5-3.3-8.7-3.3-4.3 0-7.1 2.4-7.1 5.5v.1c0 3.1 1.6 4.9 8.4 6.3 6.7 1.4 9.5 3.8 9.5 8v.1c.3 4.8-3.7 8-9.3 8zM41 250.2c-7 0-11.9-4.4-11.9-12.5v-16.9h2.2v16.7c0 6.8 3.7 10.8 9.8 10.8 5.9 0 9.7-3.6 9.7-10.6v-16.9H53v16.7c-.1 8.3-4.9 12.7-12 12.7zM73.1 238.9h-7.8v10.8h-2.2v-29h10.5c6.4 0 10.8 3.3 10.8 8.9v.1c0 6.1-5.2 9.2-11.3 9.2zm9.2-9.2c0-4.6-3.6-7-8.8-7h-8.2v14.2h8c5.3 0 9-2.8 9-7.2zM102 238.9h-7.8v10.8H92v-29h10.5c6.4 0 10.8 3.3 10.8 8.9v.1c0 6.1-5.2 9.2-11.3 9.2zm9.2-9.2c0-4.6-3.6-7-8.8-7h-8.2v14.2h8c5.4 0 9-2.8 9-7.2zM134.2 250.2c-8.8 0-14.5-7-14.5-14.9v-.1c0-7.9 5.8-15 14.6-15s14.5 7 14.5 14.9v.1c0 7.9-5.8 15-14.6 15zm12.4-15c0-7.2-5.2-13-12.4-13s-12.3 5.8-12.3 13v.1c0 7.2 5.2 13 12.4 13s12.3-5.8 12.3-13.1zM176.6 249.7l-9.2-12h-9.5v12h-2.2v-29h12.2c6.3 0 10.4 3.4 10.4 8.2v.1c0 4.8-3.6 7.6-8.5 8.3l9.6 12.4h-2.8zm-.5-20.6c0-3.9-3.1-6.3-8.3-6.3h-9.9v13h9.8c4.8 0 8.4-2.5 8.4-6.7zM198.4 222.7v27h-2.2v-27h-10.1v-2h22.4v2h-10.1zM.7 176.9h12.9c3.3 0 5.9.9 7.5 2.5 1.3 1.3 1.9 2.8 1.9 4.8v.1c0 3.4-2 5.3-4.1 6.4 3.4 1.1 5.7 3.1 5.7 7v.1c0 5.1-4.2 7.9-10.6 7.9H.7v-28.8zM18 185c0-2.3-1.8-3.6-5-3.6H5.7v7.6h6.9c3.2 0 5.4-1.3 5.4-4zm-4.3 8.2h-8v7.9H14c3.4 0 5.5-1.4 5.5-3.9v-.1c.1-2.4-1.9-3.9-5.8-3.9zM40.1 176.7h4.7l12.6 28.9H52l-2.9-6.9H35.5l-3 6.9h-5.2l12.8-28.9zm7.2 17.5l-5-11.5-4.9 11.5h9.9zM62.3 176.9h5V201h15.1v4.6H62.3v-28.7zM87.7 176.9H93l8.7 13.6 8.7-13.6h5.4v28.7h-5V185l-9.1 13.5h-.2l-9-13.4v20.5h-5v-28.7zM122.8 193.4v-16.5h5v16.3c0 5.3 2.7 8.2 7.3 8.2 4.5 0 7.2-2.7 7.2-8v-16.5h5v16.3c0 8.6-4.8 12.9-12.3 12.9-7.5-.1-12.2-4.4-12.2-12.7zM154.3 176.9H165c9 0 15.3 6.2 15.3 14.3v.1c0 8.1-6.2 14.3-15.3 14.3h-10.7v-28.7zm5 4.6V201h5.7c6 0 10-4.1 10-9.7v-.1c0-5.6-3.9-9.8-10-9.8h-5.7zM194.5 176.7h4.7l12.6 28.9h-5.3l-2.9-6.9H190l-3 6.9h-5.2l12.7-28.9zm7.2 17.5l-5-11.5-4.9 11.5h9.9z"/><path class="st0" d="M171.9 110.9c-.5 1.6-1 3.1-1.7 4.6.6-1.5 1.2-3 1.7-4.6zM174.7 127.5c0-.1 0-.2-.1-.3.1.1.2.2.1.3zM168.7 119.3c0-.5.1-1 .4-1.5.4-.7.7-1.5 1.1-2.2-.3.8-.7 1.5-1.1 2.2-.2.4-.3 1-.4 1.5zM174.6 127.1l-5-5.4 5 5.4z"/><path d="M152 115.7l-14-39.4c-.2-.6-.8-1-1.4-1h-9.3c-.6 0-1.2.4-1.4 1l-14.1 39.4c-.2.5-.1.9.2 1.3.3.4.7.6 1.2.6h8.6c.6 0 1.2-.4 1.4-1l2.2-6.6c.1-.4.5-.5.7-.5h11.4c.2 0 .5.1.7.5l2.1 6.6c.2.6.8 1 1.4 1h8.9c.5 0 .9-.2 1.2-.6.3-.4.3-.9.2-1.3zm-17.7-15.9h-5c-.5 0-.4-.5-.4-.5l2.8-8.5c.1-.1.2-.1.2 0l2.7 8.5c.1 0 .2.4-.3.5z"/><path d="M176.7 119.1c-.3-.5-.1-.9-.1-.9 2.7-6.1 4-12.6 4-19.4 0-26.9-21.9-48.8-48.8-48.8-1.4 0-2.7.1-4.1.2 0 0-.4 0-.3-.3 0-27.5-22.5-49.9-50-49.9-27.7 0-50.2 22.5-50.2 50.1 0 8 1.9 15.6 5.3 22.4.3.6-.1.9-.1 1L22.3 84.7c-1.1 1.2-1.2 3-.3 4.4.7 1 1.8 1.5 2.9 1.5.4 0 .9-.1 1.3-.3l14.2-5.6c.6-.2.9.2.9.2 9.1 9.4 21.9 15.4 36 15.4 1.8 0 3.7-.1 5.4-.3 0 0 .4 0 .4.3.8 26.2 22.3 47.3 48.7 47.3 13.2 0 25.8-5.4 34.9-14.8.4-.3.7-.3.9-.3l18 6.8c1.5.6 3.2.1 4.2-1.3.9-1.3.8-3.1-.3-4.3l-12.8-14.6zM78.2 77.2c-4 0-7.2-3.2-7.2-7.2s3.2-7.2 7.2-7.2 7.2 3.2 7.2 7.2-3.3 7.2-7.2 7.2zm5.3-20c0 .8-.6 1.4-1.4 1.4h-8.6c-.4 0-1.4-.2-1.4-1.5-.1-3.7.4-9.4 5.8-13.2l2.3-1.8c.7-.5 1.2-1 1.5-1.6 1.4-2.1 1.1-5.1-.1-6.6-1.9-2.2-6.3-2-8 .4-.9 1.4-1.3 2.8-1.3 4.3 0 .8-.6 1.4-1.4 1.4h-9.1c-.9 0-1.4-.4-1.4-1.5.1-6.5 2.8-10.9 6.9-13.9 2.8-2.1 6.5-3.1 10.4-3.1 13.2-.2 17.5 10.6 17.5 15.5 0 3-.8 5.6-2.3 7.8-.9 1.2-2.5 2.8-4.9 4.7 0 0-4.5 3-4.5 7.7zm91.2 70.4c-.1.1-.3.1-.4 0l-6.7-2.7c-1.4-.6-3-.2-3.9 1-8 9.3-19.5 14.6-31.8 14.6-23 0-41.8-18.7-41.8-41.8S108.9 57 131.9 57s41.8 18.7 41.8 41.8c0 4.2-.6 8.2-1.8 12.1-.5 1.6-1 3.1-1.7 4.6-.3.8-.7 1.5-1.1 2.2-.2.5-.4 1-.4 1.5v.5c0 .3.1.7.3 1 .1.3.3.6.6.9l4.9 5.4v.1c.1.1.1.2.1.3.1.1.1.2.1.2z"/><path class="st0" d="M168.8 119.8c0 .3.1.7.3 1-.2-.3-.3-.7-.3-1zM174.3 127.6l-6.7-2.7 6.7 2.7c.1 0 .3.1.4 0-.1.1-.3.1-.4 0zM168.8 119.8v-.5c-.1.1 0 .3 0 .5zM174.6 127.1zM174.7 127.2c-.1 0-.1 0 0 0-.1 0-.1 0 0 0z"/></svg>